<?xml version="1.0" standalone="no"?><!DOCTYPE svg PUBLIC "-//W3C//DTD SVG 1.1//EN" "http://www.w3.org/Graphics/SVG/1.1/DTD/svg11.dtd"><svg t="1740887333459" class="icon" viewBox="0 0 1024 1024" version="1.1" xmlns="http://www.w3.org/2000/svg" p-id="1038" xmlns:xlink="http://www.w3.org/1999/xlink" width="200" height="200"><path d="M32.680851 130.723404h958.638298v65.361702H32.680851zM32.680851 479.319149h958.638298v65.361702H32.680851zM32.680851 827.914894h958.638298v65.361702H32.680851z" fill="#2976FF" p-id="1039"></path><path d="M740.765957 163.404255m-152.510638 0a152.510638 152.510638 0 1 0 305.021277 0 152.510638 152.510638 0 1 0-305.021277 0Z" fill="#FFFFFF" p-id="1040"></path><path d="M740.765957 10.893617c84.229447 0 152.510638 68.281191 152.510639 152.510638s-68.281191 152.510638-152.510639 152.510639-152.510638-68.281191-152.510638-152.510639S656.536511 10.893617 740.765957 10.893617z m0 54.468085a98.042553 98.042553 0 1 0 0 196.085107 98.042553 98.042553 0 0 0 0-196.085107z" fill="#2976FF" p-id="1041"></path><path d="M740.765957 860.595745m-152.510638 0a152.510638 152.510638 0 1 0 305.021277 0 152.510638 152.510638 0 1 0-305.021277 0Z" fill="#FFFFFF" p-id="1042"></path><path d="M740.765957 708.085106c84.229447 0 152.510638 68.281191 152.510639 152.510639s-68.281191 152.510638-152.510639 152.510638-152.510638-68.281191-152.510638-152.510638 68.281191-152.510638 152.510638-152.510639z m0 54.468085a98.042553 98.042553 0 1 0 0 196.085107 98.042553 98.042553 0 0 0 0-196.085107z" fill="#2976FF" p-id="1043"></path><path d="M294.12766 512m-152.510639 0a152.510638 152.510638 0 1 0 305.021277 0 152.510638 152.510638 0 1 0-305.021277 0Z" fill="#FFFFFF" p-id="1044"></path><path d="M294.12766 359.489362c84.229447 0 152.510638 68.281191 152.510638 152.510638s-68.281191 152.510638-152.510638 152.510638-152.510638-68.281191-152.510639-152.510638 68.281191-152.510638 152.510639-152.510638z m0 54.468085a98.042553 98.042553 0 1 0 0 196.085106 98.042553 98.042553 0 0 0 0-196.085106z" fill="#44D7B6" p-id="1045"></path></svg>